 
http://www.imdb.com/title/tt1446192/


When the evil spirit Pitch launches an assault on Earth, the Immortal Guardians team up to protect the innocence of children all around the world. 



Director:
 Peter Ramsey

Writers:
 David Lindsay-Abaire (screenplay), William Joyce (book)

Stars:
 Hugh Jackman, Alec Baldwin, Isla Fisher

Genres:
 Animation | Adventure | Family | Fantasy 

Country:
USA

Language:
English 



Format                                   : AVI
Format/Info                              : Audio Video Interleave
File size                                : 1.18 GiB
Duration                                 : 1h 37mn
Overall bit rate                         : 1 733 Kbps
Writing library                          : VirtualDub build 30091/release

Video
ID                                       : 0
Format                                   : MPEG-4 Visual
Format profile                           : Advanced Simple@L5
Format settings, BVOP                    : 2
Format settings, QPel                    : No
Format settings, GMC                     : No warppoints
Format settings, Matrix                  : Default (H.263)
Muxing mode                              : Packed bitstream
Codec ID                                 : XVID
Codec ID/Hint                            : XviD
Duration                                 : 1h 37mn
Bit rate                                 : 1 596 Kbps
Width                                    : 640 pixels
Height                                   : 352 pixels
Display aspect ratio                     : 16:9
Frame rate                               : 23.976 fps
Color space                              : YUV
Chroma subsampling                       : 4:2:0
Bit depth                                : 8 bits
Scan type                                : Progressive
Compression mode                         : Lossy
Bits/(Pixel*Frame)                       : 0.295
Stream size                              : 1.08 GiB (92%)
Writing library                          : XviD 1.2.1 (UTC 2008-12-04)

Audio
ID                                       : 1
Format                                   : AC-3
Format/Info                              : Audio Coding 3
Mode extension                           : CM (complete main)
Format settings, Endianness              : Big
Codec ID                                 : 2000
Duration                                 : 1h 37mn
Bit rate mode                            : Constant
Bit rate                                 : 128 Kbps
Channel(s)                               : 2 channels
Channel positions                        : Front: L R
Sampling rate                            : 48.0 KHz
Bit depth                                : 16 bits
Compression mode                         : Lossy
Stream size                              : 88.9 MiB (7%)


 
http://bayimg.com/jAjpDAAEl
 
http://bayimg.com/JaJPEaAel
 
http://bayimg.com/jAJPFAAeL